<?xml version="1.0" encoding="utf-8"?>
<svg version="1.1" xmlns:xlink="http://www.w3.org/1999/xlink" width="585px" height="135px" xmlns="http://www.w3.org/2000/svg">
  <g transform="matrix(1 0 0 1 -60 -256 )">
    <path d="M 67.5 135  C 29.700000000000003 135  0 105.30000000000003  0 67.5  C 0 55.61197772190167  2.937596013851447 44.525117993035565  8.14088410972714 34.91132474522885  C 9.888285186821363 31.68275996721968  11.891209465230375 28.620326618090928  14.124209079384018 25.749472563412837  C 26.384429073012797 9.98713115642812  45.580333015175285 0  67.5 0  L 517.5 0  C 539.3573348145896 0  558.5063754954091 9.930411823824329  570.7710309201863 25.61514434920099  C 571.8549365880712 27.001304000223  572.8850725776804 28.432407093732593  573.8585563288897 29.90557106960534  C 580.9195251504988 40.590870017671136  585 53.48900662026722  585 67.5  C 585 105.30000000000003  555.3 135  517.5 135  L 67.5 135  Z " fill-rule="nonzero" fill="#000000" stroke="none" fill-opacity="0.4" transform="matrix(1 0 0 1 60 256 )" />
  </g>
</svg>