<?xml version="1.0" encoding="utf-8"?>
<svg version="1.1" xmlns:xlink="http://www.w3.org/1999/xlink" width="585px" height="206px" xmlns="http://www.w3.org/2000/svg">
  <g transform="matrix(1 0 0 1 -885 -414 )">
    <path d="M 67.5 206  C 29.700000000000003 206  0 160.68000000000004  0 103  C 0 84.85975859786477  2.937596013851447 67.9420319004839  8.14088410972714 53.27209553716403  C 9.888285186821363 48.345544838868555  11.891209465230375 43.67249839501282  14.124209079384018 39.29178776342996  C 26.384429073012797 15.239622357216243  45.580333015175285 0  67.5 0  L 517.5 0  C 539.3573348145896 0  558.5063754954091 15.153072857094902  570.7710309201863 39.08681285878077  C 571.8549365880712 41.201989807747694  572.8850725776804 43.38574712080677  573.8585563288897 45.633686224731115  C 580.9195251504988 61.93866091585373  585 81.62026195388924  585 103  C 585 160.68000000000004  555.3 206  517.5 206  L 67.5 206  Z " fill-rule="nonzero" fill="#000000" stroke="none" fill-opacity="0.4" transform="matrix(1 0 0 1 885 414 )" />
  </g>
</svg>