<?xml version="1.0" encoding="utf-8"?>
<svg version="1.1" xmlns:xlink="http://www.w3.org/1999/xlink" width="585px" height="185px" xmlns="http://www.w3.org/2000/svg">
  <g transform="matrix(1 0 0 1 -185 -602 )">
    <path d="M 67.5 185  C 29.700000000000003 185  0 144.3  0 92.5  C 0 76.20900650779117  2.937596013851447 61.015902434900596  8.14088410972714 47.841445021239544  C 9.888285186821363 43.41711551063438  11.891209465230375 39.22044758775424  14.124209079384018 35.28631425356574  C 26.384429073012797 13.686068621771868  45.580333015175285 0  67.5 0  L 517.5 0  C 539.3573348145896 0  558.5063754954091 13.60834212894445  570.7710309201863 35.10223484890506  C 571.8549365880712 37.00178696326856  572.8850725776804 38.96292823955948  573.8585563288897 40.98170850279251  C 580.9195251504988 55.62452557977156  585 73.29974981295878  585 92.5  C 585 144.3  555.3 185  517.5 185  L 67.5 185  Z " fill-rule="nonzero" fill="#000000" stroke="none" fill-opacity="0.4" transform="matrix(1 0 0 1 185 602 )" />
  </g>
</svg>