<?xml version="1.0" encoding="utf-8"?>
<svg version="1.1" xmlns:xlink="http://www.w3.org/1999/xlink" width="300px" height="552px" xmlns="http://www.w3.org/2000/svg">
  <g transform="matrix(1 0 0 1 -1150 -223 )">
    <path d="M 1150 223  L 1450 223  L 1450 775  L 1150 775  L 1150 223  " fill-rule="nonzero" fill="#cccccc" stroke="none" />
    <path d="M 1171 244  L 1429 244  L 1429 754  L 1171 754  L 1171 244  " fill-rule="nonzero" fill="#ffffff" stroke="none" />
    <path d="M 1328.5 350.8  C 1315.9 350.8  1306 340.90000000000003  1306 328.3  C 1306 315.7  1315.9 305.8  1328.5 305.8  C 1341.1 305.8  1351 315.7  1351 328.3  C 1351 340.90000000000003  1341.1 350.8  1328.5 350.8  " fill-rule="nonzero" fill="#cccccc" stroke="none" />
    <path d="M 1179 747  L 1179 474.75  L 1239.75 351  L 1324.8 450  L 1373.4 425.25  L 1422 450  L 1422 747  L 1179 747  " fill-rule="nonzero" fill="#169bd5" stroke="none" />
  </g>
</svg>